<?xml version="1.0" encoding="UTF-8" standalone="no"?>
<svg
   xmlns:dc="http://purl.org/dc/elements/1.1/"
   xmlns:cc="http://creativecommons.org/ns#"
   xmlns:rdf="http://www.w3.org/1999/02/22-rdf-syntax-ns#"
   xmlns:svg="http://www.w3.org/2000/svg"
   xmlns="http://www.w3.org/2000/svg"
   xmlns:sodipodi="http://sodipodi.sourceforge.net/DTD/sodipodi-0.dtd"
   xmlns:inkscape="http://www.inkscape.org/namespaces/inkscape"
   id="Layer_1"
   data-name="Layer 1"
   viewBox="0 0 2922.61 736.25"
   version="1.1"
   sodipodi:docname="YakkaLogoWhiteText.svg"
   inkscape:version="1.0.1 (3bc2e813f5, 2020-09-07)">
  <metadata
     id="metadata89">
    <rdf:RDF>
      <cc:Work
         rdf:about="">
        <dc:format>image/svg+xml</dc:format>
        <dc:type
           rdf:resource="http://purl.org/dc/dcmitype/StillImage" />
      </cc:Work>
    </rdf:RDF>
  </metadata>
  <sodipodi:namedview
     pagecolor="#ffffff"
     bordercolor="#666666"
     borderopacity="1"
     objecttolerance="10"
     gridtolerance="10"
     guidetolerance="10"
     inkscape:pageopacity="0"
     inkscape:pageshadow="2"
     inkscape:window-width="1920"
     inkscape:window-height="1001"
     id="namedview87"
     showgrid="false"
     inkscape:zoom="0.42154102"
     inkscape:cx="155.1463"
     inkscape:cy="178.34513"
     inkscape:window-x="-9"
     inkscape:window-y="-9"
     inkscape:window-maximized="1"
     inkscape:current-layer="Layer_1" />
  <defs
     id="defs66">
    <style
       id="style64">.cls-1{fill:#fea579;}.cls-2{fill:#fff;}</style>
  </defs>
  <title
     id="title68">YakkaLogoWhiteText</title>
  <g
     id="layer101"
     style="fill:#7a0646;fill-opacity:1">
    <path
       class="cls-1"
       d="M564,743.26c-34.1-3.9-55.7-14.4-81.4-39.7-16.6-16.3-26.4-30.3-33.1-47.7-5.8-15-19.9-35.1-39.4-55.9-19.7-21.1-34.6-39.8-42.3-53-11.4-19.5-24.6-56.2-29.3-82a219.88,219.88,0,0,1-2.4-22.1c-1.2-20.5-2.3-21.8-34.9-39.9-37.7-21-61-37.6-88.5-63.3-35.5-33.1-62.2-70.4-89.6-125.1-19.9-39.9-28.4-62.8-36-97.6l-2-9,24.7,25.1c25.2,25.6,35.3,34.6,52.8,47a277.79,277.79,0,0,0,90.6,41.7c18.5,4.8,31.6,7.2,58.8,10.6,12.9,1.7,25,3.2,26.8,3.5l3.2.6v-10.8c.1-23.8,6.9-43.9,21.8-64.6s33.6-35.3,56.4-44.3c6.1-2.4,12.8-5.5,14.9-7,5.1-3.5,9.1-9.7,12.5-19.2l4.6-12.9c4.6-12.6,16.7-25.8,29.1-31.7,12.8-6.1,17.7-7,41.2-7,20.8-.1,21-.1,26.6-2.9,3.3-1.6,9.9-6.6,15.7-12C578.2,11.66,584.7,7.86,592,8c15.7.2,35.9,13.1,42.7,27.4,7.9,16.3,12.3,19.1,39.9,25,45.1,9.7,75.5,29.2,98,63.2,13.5,20.2,22.6,28.6,43.2,39.3,11.1,5.9,19.5,13.1,25.6,22.4,2.5,3.7,9.3,16.5,15,28.4,5.9,12.1,11.1,21.7,11.8,21.7,5.3,0,51.7-6.5,64-9,52.7-10.6,95.1-30.2,132.2-60.8,5-4.2,18.8-17.1,30.6-28.6s22.7-22.2,24.2-23.5l2.8-2.4-2,7c-5.6,20.4-25.1,67.5-41.1,99.5-33.1,66.1-80.1,120.6-136.9,158.7-19.3,12.9-30.5,19.1-61.5,33.9-14.3,6.8-26.3,12.7-26.8,13.1s-1.6,9.6-2.7,20.4c-3.6,36.1-11.4,61.7-28.1,91.9-14.5,26.3-27.4,43-55.4,71.8-24.1,24.8-37.6,41.5-47.7,59.1-11.4,19.9-28.1,38.5-48.3,53.7-18.8,14.1-34.1,20.4-56.5,23.2C605.2,744.56,574.9,744.46,564,743.26Z"
       transform="translate(-85.1 -7.96)"
       id="path70"
       style="fill:#7a0646;fill-opacity:1" />
  </g>
  <g
     id="layer102"
     transform="translate(1086.4898,400.90998)">
    <path
       class="cls-2"
       d="m -607.58976,334.39002 c -34.1,-3.9 -55.7,-14.4 -81.4,-39.7 -16.6,-16.3 -26.4,-30.3 -33.1,-47.7 -5.8,-15 -19.9,-35.1 -39.4,-55.9 -19.7,-21.1 -34.6,-39.8 -42.3,-53 -11.4,-19.5 -24.6,-56.199996 -29.3,-81.999996 a 219.88,219.88 0 0 1 -2.4,-22.1 c -1.2,-20.5 -2.3,-21.8 -34.9,-39.8999996 -37.7,-21.0000004 -61,-37.6000004 -88.5,-63.3000004 -35.5,-33.100004 -62.20004,-70.400004 -89.60004,-125.100004 -19.9,-39.9 -28.4,-62.8 -36,-97.6 l -2,-9 24.7,25.1 c 25.2,25.6 35.3,34.6 52.8,47 a 277.79,277.79 0 0 0 90.60004,41.7 c 18.5,4.8 31.6,7.2 58.8,10.6 12.9,1.7 25,3.2 26.8,3.5 l 3.2,0.6 v -10.8 c 0.1,-23.8 6.9,-43.9 21.8,-64.6 14.9,-20.7 33.6,-35.3 56.4,-44.3 6.1,-2.4 12.8,-5.5 14.9,-7 5.1,-3.5 9.1,-9.7 12.5,-19.2 l 4.6,-12.9 c 4.6,-12.6 16.7,-25.8 29.1,-31.7 12.8,-6.1 17.7,-7 41.2,-7 20.8,-0.1 21,-0.1 26.6,-2.9 3.3,-1.6 9.9,-6.6 15.7,-12 13.4,-12.4 19.9,-16.2 27.2,-16.06 15.7,0.2 35.9,13.1 42.7,27.4 7.9,16.3 12.3,19.1 39.9,25 45.1,9.7 75.5,29.2 98,63.2 13.5,20.2 22.6,28.6 43.2,39.3 11.1,5.9 19.5,13.1 25.6,22.4 2.5,3.7 9.3,16.5 15,28.4 5.9,12.1 11.1,21.7 11.8,21.7 5.3,0 51.7,-6.5 64,-9 52.7,-10.6 95.1,-30.2 132.2,-60.8 5,-4.2 18.800004,-17.1 30.600004,-28.6 11.8,-11.5 22.7,-22.2 24.2,-23.5 l 2.8,-2.4 -2,7 c -5.6,20.4 -25.1,67.5 -41.1,99.5 -33.100004,66.1 -80.100004,120.600004 -136.900004,158.700004 -19.3,12.9 -30.5,19.1 -61.5,33.9000004 -14.3,6.8 -26.3,12.6999996 -26.8,13.0999996 -0.5,0.4 -1.6,9.6 -2.7,20.4 -3.6,36.1 -11.4,61.7 -28.1,91.899996 -14.5,26.3 -27.4,43 -55.4,71.8 -24.1,24.8 -37.6,41.5 -47.7,59.1 -11.4,19.9 -28.1,38.5 -48.3,53.7 -18.8,14.1 -34.1,20.4 -56.5,23.2 -9.8,1.16 -40.1,1.06 -51,-0.14 z m -3.7,-80.26 c 5.9,-2.4 11.7,-11.1 11.7,-17.6 0,-6.5 -5.8,-15.2 -11.7,-17.6 -3.9,-1.7 -11.1,-1.8 -15,-0.3 -6.3,2.4 -12.2,10.9 -12.3,17.7 -0.1,6.8 5.3,15 11.5,17.8 3.9,1.66 11.7,1.76 15.8,0 z m 92,0 c 5.9,-2.4 11.7,-11.1 11.7,-17.6 0,-6.5 -5.8,-15.2 -11.7,-17.6 -3.9,-1.7 -11.1,-1.8 -15,-0.3 -6.3,2.4 -12.2,10.9 -12.3,17.7 -0.1,6.8 5.3,15 11.5,17.8 3.9,1.66 11.7,1.76 15.8,0 z m -138.3,-242.139996 c 16.8,-5.8999996 22.6,-26.6 11.5,-41.1 -3.5,-4.5 -13.6,-9.4 -19.5,-9.4 -14.8,0 -26,11.2 -26,26 0,18.1000004 17.1,30.4 34,24.5 z m 178.5,-0.4 c 5,-2.1999996 9.9,-6.9999996 12.8,-12.49999965 1.6,-3.09999995 2.1,-5.79999995 2.1,-11.10000035 0,-7.9 -2,-13 -7.6,-18.5 -4.8,-4.9 -10.2,-7 -17.8,-7 -7.6,0 -13,2.1 -17.8,7 -5.6,5.5 -7.6,10.6 -7.6,18.5 0,7.9000004 2,13.00000035 7.6,18.5000004 4.8,4.8999996 10.2,6.9999996 17.8,6.9999996 a 25.94,25.94 0 0 0 10.5,-1.9 z"
       id="path73"
       inkscape:transform-center-x="78.284196"
       inkscape:transform-center-y="-16.605739" />
  </g>
  <path
     class="cls-2"
     d="M1195.75,180.62h92.92l88.22,218.92,87.63-218.92h91.74L1417.47,492.87V659.62h-82.34V492.87Z"
     transform="translate(-85.1 -7.96)"
     id="path76" />
  <path
     class="cls-2"
     d="M1731.51,273.27c52.34,0,88.22,28.82,107.62,60.39V279.44h82.93V659.62h-82.93V604c-19.4,32.94-56.45,61.76-108.21,61.76-82.33,0-148.2-78.92-148.2-197.64S1648.59,273.27,1731.51,273.27Zm21.17,84.4c-44.1,0-85.86,38.43-85.86,110.49s41.76,113.23,85.86,113.23c45.29,0,86.45-39.8,86.45-111.86S1798,357.67,1752.68,357.67Z"
     transform="translate(-85.1 -7.96)"
     id="path78" />
  <path
     class="cls-2"
     d="M2002.63,151.8H2085V440.71l109.39-161.27h107l-143.5,190.78,144.67,189.4h-107L2085,497.67v162h-82.33Z"
     transform="translate(-85.1 -7.96)"
     id="path80" />
  <path
     class="cls-2"
     d="M2346.09,151.8h82.33V440.71l109.39-161.27h107L2501.35,470.22,2646,659.62H2539L2428.42,497.67v162h-82.33Z"
     transform="translate(-85.1 -7.96)"
     id="path82" />
  <path
     class="cls-2"
     d="M2817.16,273.27c52.34,0,88.22,28.82,107.62,60.39V279.44h82.93V659.62h-82.93V604c-19.4,32.94-56.45,61.76-108.21,61.76-82.33,0-148.2-78.92-148.2-197.64S2734.24,273.27,2817.16,273.27Zm21.17,84.4c-44.11,0-85.86,38.43-85.86,110.49s41.75,113.23,85.86,113.23c45.29,0,86.45-39.8,86.45-111.86S2883.62,357.67,2838.33,357.67Z"
     transform="translate(-85.1 -7.96)"
     id="path84" />
</svg>
